<svg version="1.1" xmlns="http://www.w3.org/2000/svg" xmlns:xlink="http://www.w3.org/1999/xlink" width="619" height="539"><defs/><g><text fill="#eeeeee" stroke="none" font-family="Arial" font-size="24px" font-style="normal" font-weight="normal" text-decoration="none" x="0" y="0">UNREGISTERED</text><text fill="#eeeeee" stroke="none" font-family="Arial" font-size="24px" font-style="normal" font-weight="normal" text-decoration="none" x="0" y="30">UNREGISTERED</text><text fill="#eeeeee" stroke="none" font-family="Arial" font-size="24px" font-style="normal" font-weight="normal" text-decoration="none" x="0" y="60">UNREGISTERED</text><text fill="#eeeeee" stroke="none" font-family="Arial" font-size="24px" font-style="normal" font-weight="normal" text-decoration="none" x="0" y="90">UNREGISTERED</text><text fill="#eeeeee" stroke="none" font-family="Arial" font-size="24px" font-style="normal" font-weight="normal" text-decoration="none" x="0" y="120">UNREGISTERED</text><text fill="#eeeeee" stroke="none" font-family="Arial" font-size="24px" font-style="normal" font-weight="normal" text-decoration="none" x="0" y="150">UNREGISTERED</text><text fill="#eeeeee" stroke="none" font-family="Arial" font-size="24px" font-style="normal" font-weight="normal" text-decoration="none" x="0" y="180">UNREGISTERED</text><text fill="#eeeeee" stroke="none" font-family="Arial" font-size="24px" font-style="normal" font-weight="normal" text-decoration="none" x="0" y="210">UNREGISTERED</text><text fill="#eeeeee" stroke="none" font-family="Arial" font-size="24px" font-style="normal" font-weight="normal" text-decoration="none" x="0" y="240">UNREGISTERED</text><text fill="#eeeeee" stroke="none" font-family="Arial" font-size="24px" font-style="normal" font-weight="normal" text-decoration="none" x="0" y="270">UNREGISTERED</text><text fill="#eeeeee" stroke="none" font-family="Arial" font-size="24px" font-style="normal" font-weight="normal" text-decoration="none" x="0" y="300">UNREGISTERED</text><text fill="#eeeeee" stroke="none" font-family="Arial" font-size="24px" font-style="normal" font-weight="normal" text-decoration="none" x="0" y="330">UNREGISTERED</text><text fill="#eeeeee" stroke="none" font-family="Arial" font-size="24px" font-style="normal" font-weight="normal" text-decoration="none" x="0" y="360">UNREGISTERED</text><text fill="#eeeeee" stroke="none" font-family="Arial" font-size="24px" font-style="normal" font-weight="normal" text-decoration="none" x="0" y="390">UNREGISTERED</text><text fill="#eeeeee" stroke="none" font-family="Arial" font-size="24px" font-style="normal" font-weight="normal" text-decoration="none" x="0" y="420">UNREGISTERED</text><text fill="#eeeeee" stroke="none" font-family="Arial" font-size="24px" font-style="normal" font-weight="normal" text-decoration="none" x="0" y="450">UNREGISTERED</text><text fill="#eeeeee" stroke="none" font-family="Arial" font-size="24px" font-style="normal" font-weight="normal" text-decoration="none" x="0" y="480">UNREGISTERED</text><text fill="#eeeeee" stroke="none" font-family="Arial" font-size="24px" font-style="normal" font-weight="normal" text-decoration="none" x="0" y="510">UNREGISTERED</text><text fill="#eeeeee" stroke="none" font-family="Arial" font-size="24px" font-style="normal" font-weight="normal" text-decoration="none" x="200" y="0">UNREGISTERED</text><text fill="#eeeeee" stroke="none" font-family="Arial" font-size="24px" font-style="normal" font-weight="normal" text-decoration="none" x="200" y="30">UNREGISTERED</text><text fill="#eeeeee" stroke="none" font-family="Arial" font-size="24px" font-style="normal" font-weight="normal" text-decoration="none" x="200" y="60">UNREGISTERED</text><text fill="#eeeeee" stroke="none" font-family="Arial" font-size="24px" font-style="normal" font-weight="normal" text-decoration="none" x="200" y="90">UNREGISTERED</text><text fill="#eeeeee" stroke="none" font-family="Arial" font-size="24px" font-style="normal" font-weight="normal" text-decoration="none" x="200" y="120">UNREGISTERED</text><text fill="#eeeeee" stroke="none" font-family="Arial" font-size="24px" font-style="normal" font-weight="normal" text-decoration="none" x="200" y="150">UNREGISTERED</text><text fill="#eeeeee" stroke="none" font-family="Arial" font-size="24px" font-style="normal" font-weight="normal" text-decoration="none" x="200" y="180">UNREGISTERED</text><text fill="#eeeeee" stroke="none" font-family="Arial" font-size="24px" font-style="normal" font-weight="normal" text-decoration="none" x="200" y="210">UNREGISTERED</text><text fill="#eeeeee" stroke="none" font-family="Arial" font-size="24px" font-style="normal" font-weight="normal" text-decoration="none" x="200" y="240">UNREGISTERED</text><text fill="#eeeeee" stroke="none" font-family="Arial" font-size="24px" font-style="normal" font-weight="normal" text-decoration="none" x="200" y="270">UNREGISTERED</text><text fill="#eeeeee" stroke="none" font-family="Arial" font-size="24px" font-style="normal" font-weight="normal" text-decoration="none" x="200" y="300">UNREGISTERED</text><text fill="#eeeeee" stroke="none" font-family="Arial" font-size="24px" font-style="normal" font-weight="normal" text-decoration="none" x="200" y="330">UNREGISTERED</text><text fill="#eeeeee" stroke="none" font-family="Arial" font-size="24px" font-style="normal" font-weight="normal" text-decoration="none" x="200" y="360">UNREGISTERED</text><text fill="#eeeeee" stroke="none" font-family="Arial" font-size="24px" font-style="normal" font-weight="normal" text-decoration="none" x="200" y="390">UNREGISTERED</text><text fill="#eeeeee" stroke="none" font-family="Arial" font-size="24px" font-style="normal" font-weight="normal" text-decoration="none" x="200" y="420">UNREGISTERED</text><text fill="#eeeeee" stroke="none" font-family="Arial" font-size="24px" font-style="normal" font-weight="normal" text-decoration="none" x="200" y="450">UNREGISTERED</text><text fill="#eeeeee" stroke="none" font-family="Arial" font-size="24px" font-style="normal" font-weight="normal" text-decoration="none" x="200" y="480">UNREGISTERED</text><text fill="#eeeeee" stroke="none" font-family="Arial" font-size="24px" font-style="normal" font-weight="normal" text-decoration="none" x="200" y="510">UNREGISTERED</text><text fill="#eeeeee" stroke="none" font-family="Arial" font-size="24px" font-style="normal" font-weight="normal" text-decoration="none" x="400" y="0">UNREGISTERED</text><text fill="#eeeeee" stroke="none" font-family="Arial" font-size="24px" font-style="normal" font-weight="normal" text-decoration="none" x="400" y="30">UNREGISTERED</text><text fill="#eeeeee" stroke="none" font-family="Arial" font-size="24px" font-style="normal" font-weight="normal" text-decoration="none" x="400" y="60">UNREGISTERED</text><text fill="#eeeeee" stroke="none" font-family="Arial" font-size="24px" font-style="normal" font-weight="normal" text-decoration="none" x="400" y="90">UNREGISTERED</text><text fill="#eeeeee" stroke="none" font-family="Arial" font-size="24px" font-style="normal" font-weight="normal" text-decoration="none" x="400" y="120">UNREGISTERED</text><text fill="#eeeeee" stroke="none" font-family="Arial" font-size="24px" font-style="normal" font-weight="normal" text-decoration="none" x="400" y="150">UNREGISTERED</text><text fill="#eeeeee" stroke="none" font-family="Arial" font-size="24px" font-style="normal" font-weight="normal" text-decoration="none" x="400" y="180">UNREGISTERED</text><text fill="#eeeeee" stroke="none" font-family="Arial" font-size="24px" font-style="normal" font-weight="normal" text-decoration="none" x="400" y="210">UNREGISTERED</text><text fill="#eeeeee" stroke="none" font-family="Arial" font-size="24px" font-style="normal" font-weight="normal" text-decoration="none" x="400" y="240">UNREGISTERED</text><text fill="#eeeeee" stroke="none" font-family="Arial" font-size="24px" font-style="normal" font-weight="normal" text-decoration="none" x="400" y="270">UNREGISTERED</text><text fill="#eeeeee" stroke="none" font-family="Arial" font-size="24px" font-style="normal" font-weight="normal" text-decoration="none" x="400" y="300">UNREGISTERED</text><text fill="#eeeeee" stroke="none" font-family="Arial" font-size="24px" font-style="normal" font-weight="normal" text-decoration="none" x="400" y="330">UNREGISTERED</text><text fill="#eeeeee" stroke="none" font-family="Arial" font-size="24px" font-style="normal" font-weight="normal" text-decoration="none" x="400" y="360">UNREGISTERED</text><text fill="#eeeeee" stroke="none" font-family="Arial" font-size="24px" font-style="normal" font-weight="normal" text-decoration="none" x="400" y="390">UNREGISTERED</text><text fill="#eeeeee" stroke="none" font-family="Arial" font-size="24px" font-style="normal" font-weight="normal" text-decoration="none" x="400" y="420">UNREGISTERED</text><text fill="#eeeeee" stroke="none" font-family="Arial" font-size="24px" font-style="normal" font-weight="normal" text-decoration="none" x="400" y="450">UNREGISTERED</text><text fill="#eeeeee" stroke="none" font-family="Arial" font-size="24px" font-style="normal" font-weight="normal" text-decoration="none" x="400" y="480">UNREGISTERED</text><text fill="#eeeeee" stroke="none" font-family="Arial" font-size="24px" font-style="normal" font-weight="normal" text-decoration="none" x="400" y="510">UNREGISTERED</text><text fill="#eeeeee" stroke="none" font-family="Arial" font-size="24px" font-style="normal" font-weight="normal" text-decoration="none" x="600" y="0">UNREGISTERED</text><text fill="#eeeeee" stroke="none" font-family="Arial" font-size="24px" font-style="normal" font-weight="normal" text-decoration="none" x="600" y="30">UNREGISTERED</text><text fill="#eeeeee" stroke="none" font-family="Arial" font-size="24px" font-style="normal" font-weight="normal" text-decoration="none" x="600" y="60">UNREGISTERED</text><text fill="#eeeeee" stroke="none" font-family="Arial" font-size="24px" font-style="normal" font-weight="normal" text-decoration="none" x="600" y="90">UNREGISTERED</text><text fill="#eeeeee" stroke="none" font-family="Arial" font-size="24px" font-style="normal" font-weight="normal" text-decoration="none" x="600" y="120">UNREGISTERED</text><text fill="#eeeeee" stroke="none" font-family="Arial" font-size="24px" font-style="normal" font-weight="normal" text-decoration="none" x="600" y="150">UNREGISTERED</text><text fill="#eeeeee" stroke="none" font-family="Arial" font-size="24px" font-style="normal" font-weight="normal" text-decoration="none" x="600" y="180">UNREGISTERED</text><text fill="#eeeeee" stroke="none" font-family="Arial" font-size="24px" font-style="normal" font-weight="normal" text-decoration="none" x="600" y="210">UNREGISTERED</text><text fill="#eeeeee" stroke="none" font-family="Arial" font-size="24px" font-style="normal" font-weight="normal" text-decoration="none" x="600" y="240">UNREGISTERED</text><text fill="#eeeeee" stroke="none" font-family="Arial" font-size="24px" font-style="normal" font-weight="normal" text-decoration="none" x="600" y="270">UNREGISTERED</text><text fill="#eeeeee" stroke="none" font-family="Arial" font-size="24px" font-style="normal" font-weight="normal" text-decoration="none" x="600" y="300">UNREGISTERED</text><text fill="#eeeeee" stroke="none" font-family="Arial" font-size="24px" font-style="normal" font-weight="normal" text-decoration="none" x="600" y="330">UNREGISTERED</text><text fill="#eeeeee" stroke="none" font-family="Arial" font-size="24px" font-style="normal" font-weight="normal" text-decoration="none" x="600" y="360">UNREGISTERED</text><text fill="#eeeeee" stroke="none" font-family="Arial" font-size="24px" font-style="normal" font-weight="normal" text-decoration="none" x="600" y="390">UNREGISTERED</text><text fill="#eeeeee" stroke="none" font-family="Arial" font-size="24px" font-style="normal" font-weight="normal" text-decoration="none" x="600" y="420">UNREGISTERED</text><text fill="#eeeeee" stroke="none" font-family="Arial" font-size="24px" font-style="normal" font-weight="normal" text-decoration="none" x="600" y="450">UNREGISTERED</text><text fill="#eeeeee" stroke="none" font-family="Arial" font-size="24px" font-style="normal" font-weight="normal" text-decoration="none" x="600" y="480">UNREGISTERED</text><text fill="#eeeeee" stroke="none" font-family="Arial" font-size="24px" font-style="normal" font-weight="normal" text-decoration="none" x="600" y="510">UNREGISTERED</text><g transform="translate(-654,-294) scale(1,1)"><rect fill="#C0C0C0" stroke="none" x="807" y="311" width="463" height="519" opacity="0.2"/></g><g transform="translate(-654,-294) scale(1,1)"><rect fill="#ffffff" stroke="none" x="800" y="304" width="463" height="519"/></g><g transform="translate(-654,-294) scale(1,1)"><path fill="none" stroke="#000000" d="M 800 304 L 1263 304 L 1263 823 L 800 823 L 800 304 Z Z" stroke-miterlimit="10"/></g><g transform="translate(-654,-294) scale(1,1)"><g><path fill="none" stroke="none"/><text fill="#000000" stroke="none" font-family="Arial" font-size="13px" font-style="normal" font-weight="bold" text-decoration="none" x="970.44189453125" y="321.5">Simple marketplace</text></g></g><g transform="translate(-654,-294) scale(1,1)"><path fill="#ffffff" stroke="none" d="M 690.1593503196023 521.6800000000001 C 690.1593503196023 516.8861679360001 694.0451926445477 513 698.838623046875 513 C 703.6320534492023 513 707.5178957741477 516.8861679360001 707.5178957741477 521.6800000000001 C 707.5178957741477 526.473832064 703.6320534492023 530.36 698.838623046875 530.36 C 694.0451926445477 530.36 690.1593503196023 526.473832064 690.1593503196023 521.6800000000001 Z"/></g><g transform="translate(-654,-294) scale(1,1)"><path fill="none" stroke="#000000" d="M 690.1593503196023 521.6800000000001 C 690.1593503196023 516.8861679360001 694.0451926445477 513 698.838623046875 513 C 703.6320534492023 513 707.5178957741477 516.8861679360001 707.5178957741477 521.6800000000001 C 707.5178957741477 526.473832064 703.6320534492023 530.36 698.838623046875 530.36 C 694.0451926445477 530.36 690.1593503196023 526.473832064 690.1593503196023 521.6800000000001 Z" stroke-miterlimit="10"/></g><g transform="translate(-654,-294) scale(1,1)"><path fill="none" stroke="#000000" d="M 698.838623046875 530.36 L 698.838623046875 547.64" stroke-miterlimit="10"/></g><g transform="translate(-654,-294) scale(1,1)"><path fill="none" stroke="#000000" d="M 689.6488048650568 536.84 L 708.0284412286932 536.84" stroke-miterlimit="10"/></g><g transform="translate(-654,-294) scale(1,1)"><path fill="none" stroke="#000000" d="M 698.838623046875 547.64 L 686.0749866832386 565" stroke-miterlimit="10"/></g><g transform="translate(-654,-294) scale(1,1)"><path fill="none" stroke="#000000" d="M 698.838623046875 547.64 L 711.6022594105114 565" stroke-miterlimit="10"/></g><g transform="translate(-654,-294) scale(1,1)"><g><path fill="none" stroke="none"/><text fill="#000000" stroke="none" font-family="Arial" font-size="13px" font-style="normal" font-weight="bold" text-decoration="none" x="668.5" y="583.5">Customer</text></g></g><g transform="translate(-654,-294) scale(1,1)"><path fill="#C0C0C0" stroke="none" d="M 983 376 C 983 366.6111584 1017.2502128 359 1059.5 359 C 1101.7497872 359 1136 366.6111584 1136 376 C 1136 385.3888416 1101.7497872 393 1059.5 393 C 1017.2502128 393 983 385.3888416 983 376 Z" opacity="0.2"/></g><g transform="translate(-654,-294) scale(1,1)"><path fill="#ffffff" stroke="none" d="M 976 369 C 976 359.6111584 1010.2502128 352 1052.5 352 C 1094.7497872 352 1129 359.6111584 1129 369 C 1129 378.3888416 1094.7497872 386 1052.5 386 C 1010.2502128 386 976 378.3888416 976 369 Z"/></g><g transform="translate(-654,-294) scale(1,1)"><path fill="none" stroke="#000000" d="M 976 369 C 976 359.6111584 1010.2502128 352 1052.5 352 C 1094.7497872 352 1129 359.6111584 1129 369 C 1129 378.3888416 1094.7497872 386 1052.5 386 C 1010.2502128 386 976 378.3888416 976 369 Z" stroke-miterlimit="10"/></g><g transform="translate(-654,-294) scale(1,1)"><g><path fill="none" stroke="none"/><text fill="#000000" stroke="none" font-family="Arial" font-size="13px" font-style="normal" font-weight="bold" text-decoration="none" x="1003.023193359375" y="374">Browse product</text></g></g><g transform="translate(-654,-294) scale(1,1)"><path fill="#C0C0C0" stroke="none" d="M 967 448 C 967 438.6111584 1007.9659408 431 1058.5 431 C 1109.0340592 431 1150 438.6111584 1150 448 C 1150 457.3888416 1109.0340592 465 1058.5 465 C 1007.9659408 465 967 457.3888416 967 448 Z" opacity="0.2"/></g><g transform="translate(-654,-294) scale(1,1)"><path fill="#ffffff" stroke="none" d="M 960 441 C 960 431.6111584 1000.9659408 424 1051.5 424 C 1102.0340592 424 1143 431.6111584 1143 441 C 1143 450.3888416 1102.0340592 458 1051.5 458 C 1000.9659408 458 960 450.3888416 960 441 Z"/></g><g transform="translate(-654,-294) scale(1,1)"><path fill="none" stroke="#000000" d="M 960 441 C 960 431.6111584 1000.9659408 424 1051.5 424 C 1102.0340592 424 1143 431.6111584 1143 441 C 1143 450.3888416 1102.0340592 458 1051.5 458 C 1000.9659408 458 960 450.3888416 960 441 Z" stroke-miterlimit="10"/></g><g transform="translate(-654,-294) scale(1,1)"><g><path fill="none" stroke="none"/><text fill="#000000" stroke="none" font-family="Arial" font-size="13px" font-style="normal" font-weight="bold" text-decoration="none" x="991.197265625" y="446">Add product to cart</text></g></g><g transform="translate(-654,-294) scale(1,1)"><path fill="#C0C0C0" stroke="none" d="M 999 616 C 999 606.6111584 1029.2207760000001 599 1066.5 599 C 1103.7792239999999 599 1134 606.6111584 1134 616 C 1134 625.3888416 1103.7792239999999 633 1066.5 633 C 1029.2207760000001 633 999 625.3888416 999 616 Z" opacity="0.2"/></g><g transform="translate(-654,-294) scale(1,1)"><path fill="#ffffff" stroke="none" d="M 992 609 C 992 599.6111584 1022.220776 592 1059.5 592 C 1096.7792239999999 592 1127 599.6111584 1127 609 C 1127 618.3888416 1096.7792239999999 626 1059.5 626 C 1022.220776 626 992 618.3888416 992 609 Z"/></g><g transform="translate(-654,-294) scale(1,1)"><path fill="none" stroke="#000000" d="M 992 609 C 992 599.6111584 1022.220776 592 1059.5 592 C 1096.7792239999999 592 1127 599.6111584 1127 609 C 1127 618.3888416 1096.7792239999999 626 1059.5 626 C 1022.220776 626 992 618.3888416 992 609 Z" stroke-miterlimit="10"/></g><g transform="translate(-654,-294) scale(1,1)"><g><path fill="none" stroke="none"/><text fill="#000000" stroke="none" font-family="Arial" font-size="13px" font-style="normal" font-weight="bold" text-decoration="none" x="1016.155029296875" y="614">Checkout cart</text></g></g><g transform="translate(-654,-294) scale(1,1)"><path fill="#C0C0C0" stroke="none" d="M 983 704 C 983 694.6111584 1016.57864 687 1058 687 C 1099.42136 687 1133 694.6111584 1133 704 C 1133 713.3888416 1099.42136 721 1058 721 C 1016.57864 721 983 713.3888416 983 704 Z" opacity="0.2"/></g><g transform="translate(-654,-294) scale(1,1)"><path fill="#ffffff" stroke="none" d="M 976 697 C 976 687.6111584 1009.57864 680 1051 680 C 1092.42136 680 1126 687.6111584 1126 697 C 1126 706.3888416 1092.42136 714 1051 714 C 1009.57864 714 976 706.3888416 976 697 Z"/></g><g transform="translate(-654,-294) scale(1,1)"><path fill="none" stroke="#000000" d="M 976 697 C 976 687.6111584 1009.57864 680 1051 680 C 1092.42136 680 1126 687.6111584 1126 697 C 1126 706.3888416 1092.42136 714 1051 714 C 1009.57864 714 976 706.3888416 976 697 Z" stroke-miterlimit="10"/></g><g transform="translate(-654,-294) scale(1,1)"><g><path fill="none" stroke="none"/><text fill="#000000" stroke="none" font-family="Arial" font-size="13px" font-style="normal" font-weight="bold" text-decoration="none" x="1002.5927734375" y="702">See transaction</text></g></g><g transform="translate(-654,-294) scale(1,1)"><path fill="none" stroke="#000000" d="M 735 532 L 1017 387" stroke-miterlimit="10"/></g><g transform="translate(-654,-294) scale(1,1)"><path fill="none" stroke="#000000" d="M 735 540 L 993 459" stroke-miterlimit="10"/></g><g transform="translate(-654,-294) scale(1,1)"><path fill="#C0C0C0" stroke="none" d="M 983 528 C 983 518.6111584 1005.6096176 511 1033.5 511 C 1061.3903824 511 1084 518.6111584 1084 528 C 1084 537.3888416 1061.3903824 545 1033.5 545 C 1005.6096176 545 983 537.3888416 983 528 Z" opacity="0.2"/></g><g transform="translate(-654,-294) scale(1,1)"><path fill="#ffffff" stroke="none" d="M 976 521 C 976 511.6111584 998.6096176 504 1026.5 504 C 1054.3903824 504 1077 511.6111584 1077 521 C 1077 530.3888416 1054.3903824 538 1026.5 538 C 998.6096176 538 976 530.3888416 976 521 Z"/></g><g transform="translate(-654,-294) scale(1,1)"><path fill="none" stroke="#000000" d="M 976 521 C 976 511.6111584 998.6096176 504 1026.5 504 C 1054.3903824 504 1077 511.6111584 1077 521 C 1077 530.3888416 1054.3903824 538 1026.5 538 C 998.6096176 538 976 530.3888416 976 521 Z" stroke-miterlimit="10"/></g><g transform="translate(-654,-294) scale(1,1)"><g><path fill="none" stroke="none"/><text fill="#000000" stroke="none" font-family="Arial" font-size="13px" font-style="normal" font-weight="bold" text-decoration="none" x="1001.20458984375" y="526">See cart</text></g></g><g transform="translate(-654,-294) scale(1,1)"><path fill="none" stroke="#000000" d="M 735 548 L 975 526" stroke-miterlimit="10"/></g><g transform="translate(-654,-294) scale(1,1)"><path fill="none" stroke="#000000" d="M 735 557 L 991 598" stroke-miterlimit="10"/></g><g transform="translate(-654,-294) scale(1,1)"><path fill="none" stroke="#000000" d="M 735 566 L 1007 679" stroke-miterlimit="10"/></g></g></svg>